<svg width="96" height="96" viewBox="0 0 96 96" fill="none" xmlns="http://www.w3.org/2000/svg">
<path d="M28.1731 88.057V86.8099H34.4467L33.8995 79.7904H28.1731V77.5334H33.7228L33.5174 74.8934C33.3647 73.295 32.8079 71.7974 31.9295 70.5149H28.1731V67.3113C27.2697 66.8573 26.4038 66.3485 25.5695 65.7993V70.5158H18.287V77.5353H25.5695V79.7923H18.287V86.8118H25.5695V88.0589C25.5695 88.751 26.1129 89.304 26.7955 89.3453H26.9471C27.6287 89.304 28.1731 88.751 28.1731 88.0589V88.057Z" fill="#AA182C"/>
<path d="M70.4295 88.057V86.8099H77.713V79.7904H70.4295V77.5334H77.713V70.5139H70.4295V65.7629C69.5962 66.3101 68.7284 66.8141 67.826 67.2682V70.5139H63.9505C63.0788 71.7859 62.5181 73.2758 62.352 74.881L62.1274 77.5325H67.826V79.7894H61.9354L61.3402 86.809H67.825V88.056C67.825 88.7482 68.3684 89.3011 69.0509 89.3424H69.2026C69.8842 89.3011 70.4285 88.7482 70.4285 88.056L70.4295 88.057Z" fill="#AA182C"/>
<path d="M84.6356 45.6144L70.8413 34.2154H52.1463V13.5773H60.1325C60.7988 13.5773 61.3383 13.0378 61.3383 12.3715V11.4182H63.2669C65.738 11.4182 67.826 14.4182 67.826 17.9693V31.7155H70.4295V17.9693C70.4295 12.9216 67.2173 8.81473 63.2669 8.81473H61.3383V7.86241C61.3383 7.19617 60.7988 6.65665 60.1325 6.65665H35.8666C35.2004 6.65665 34.6609 7.19617 34.6609 7.86241V8.81473H32.7313C28.7818 8.81473 25.5687 12.9206 25.5687 17.9693V31.7155H28.1722V17.9693C28.1722 14.4182 30.2593 11.4182 32.7313 11.4182H34.6609V12.3715C34.6609 13.0378 35.2004 13.5773 35.8666 13.5773H43.8529V34.2163H25.1588L11.3645 45.6154C10.8106 46.0733 10.7319 46.8931 11.1908 47.447C11.6468 48.001 12.4676 48.0826 13.0225 47.6208L16.0407 45.1267L17.2013 49.8019C18.8756 56.545 23.4337 62.0736 29.4788 65.0621C33.2084 66.9062 35.7178 70.5494 36.1124 74.6918L37.2548 89.3434H58.5121L59.762 74.6141C60.1882 70.5014 62.6929 66.8842 66.409 65.0717C72.5079 62.0966 77.1121 56.543 78.7969 49.7578L79.9489 45.119L82.9777 47.6218C83.2205 47.8224 83.5143 47.9203 83.8052 47.9203C84.1805 47.9203 84.553 47.759 84.8093 47.447C85.2682 46.8931 85.1895 46.0733 84.6356 45.6154V45.6144ZM46.4564 13.5773H49.5428V34.2163H46.4564V13.5773ZM74.7322 43.175C72.265 51.7882 64.3901 57.7248 55.4305 57.7248H40.5572C31.5975 57.7248 23.7226 51.7882 21.2554 43.175C21.0788 42.5587 20.7034 42.0422 20.2253 41.6698L25.5697 37.2538V46.6032C26.3031 47.8234 27.1796 48.9408 28.1732 49.9382V36.8198H67.826V49.9277C68.8196 48.9283 69.6961 47.809 70.4295 46.5859V37.2528L75.769 41.665C75.2871 42.0374 74.9089 42.5558 74.7322 43.175Z" fill="#AA182C"/>
<path d="M47.881 55.5648C51.9221 55.5648 55.1981 52.2888 55.1981 48.2477C55.1981 44.2065 51.9221 40.9305 47.881 40.9305C43.8398 40.9305 40.5638 44.2065 40.5638 48.2477C40.5638 52.2888 43.8398 55.5648 47.881 55.5648Z" fill="#AA182C"/>
</svg>
