<svg width="96" height="96" viewBox="0 0 96 96" fill="none" xmlns="http://www.w3.org/2000/svg">
<path d="M44.0007 3.71998C33.1671 4.79422 24.0989 6.81598 19.4813 10.0176C11.8474 14.1149 26.7629 29.5286 23.0352 36.9869C19.3066 44.4441 -1.07903 54.888 27.5098 92.4269H68.4912C97.08 54.8889 76.6963 44.4441 72.9658 36.9869C69.2371 29.5286 84.1527 14.1149 76.5197 10.0176C71.9021 6.81598 58.2615 2.74366 44.0016 3.71998M64.8672 27.1901C64.8672 27.1901 64.0109 30.6211 60.6288 30.5222H35.3722C31.9901 30.6211 30.9485 27.1901 30.9485 27.1901L26.5997 16.4553C25.3911 13.9113 41.5085 11.1206 47.9799 11.3741C54.1978 11.1206 70.3776 13.5302 69.4003 16.4553L64.8643 27.1901H64.8672Z" fill="#AA182C"/>
</svg>
