<svg width="96" height="96" viewBox="0 0 96 96" fill="none" xmlns="http://www.w3.org/2000/svg">
<path d="M67.4995 58.5466C67.3133 58.4909 67.1184 58.4535 66.9235 58.4535H56.6141C56.6035 58.4535 56.593 58.4573 56.5814 58.4573H56.1226C52.5811 58.4573 48.816 60.0327 46.5514 62.7562L42.3293 67.8355L42.1142 76.0109L50.3866 80.8311C51.1392 81.2698 51.9946 81.2151 52.5782 80.7648L52.6886 86.3626H70.5082L70.633 80.0256C70.633 80.0208 70.633 80.016 70.633 80.0112C70.633 80.0093 70.633 80.0074 70.633 80.0055L70.6378 79.7405L70.6234 79.7386C70.6234 79.5255 70.6138 79.3037 70.5859 79.0906C70.3718 76.9987 70.177 75.1863 70.1117 74.6938C70.1021 74.6381 70.0934 74.5824 70.0934 74.5171L69.7498 69.9802L74.9184 73.4103C75.5011 73.896 76.0646 74.1629 76.5974 74.2522C76.6214 74.257 76.6454 74.256 76.6694 74.2599C76.7741 74.2743 76.8797 74.2935 76.9824 74.2935C76.9843 74.2935 76.9862 74.2935 76.9882 74.2935C77.9242 74.3213 78.8909 73.7712 79.3843 72.8333L83.9731 62.5623L86.2666 63.6787L85.7558 64.729C85.4554 65.3463 85.7126 66.0893 86.329 66.3898L89.1475 67.7616C89.7648 68.0621 90.5078 67.8048 90.8083 67.1885L93.2986 62.0727C93.599 61.4554 93.3418 60.7123 92.7254 60.4119L89.9069 59.04C89.2896 58.7395 88.5466 58.9968 88.2461 59.6131L87.7354 60.6634L79.488 56.6496L79.9987 55.5994C80.2992 54.9821 80.0419 54.2391 79.4256 53.9386L76.607 52.5667C75.9898 52.2663 75.2467 52.5235 74.9462 53.1399L72.456 58.2557C72.1555 58.873 72.4128 59.616 73.0291 59.9165L75.8477 61.2883C76.465 61.5888 77.208 61.3315 77.5085 60.7152L78.0192 59.665L80.4778 60.8611L76.8326 67.9632C75.072 66.1335 68.6093 59.4163 68.5142 59.3098C68.5142 59.3098 68.5142 59.3098 68.5142 59.3088C68.5078 59.3088 68.5046 59.3056 68.5046 59.2992C68.2349 58.9363 67.8912 58.6762 67.5005 58.5466H67.4995ZM53.1734 74.5181C53.1638 74.5834 53.1638 74.6391 53.1552 74.6947C53.1024 75.096 52.9622 76.3709 52.7923 77.9616C52.6301 77.7466 52.4285 77.5546 52.1923 77.3991L45.2352 72.8247C46.2922 71.4547 49.5878 67.5696 53.904 66.0442C53.5584 69.8602 53.2291 73.8221 53.1734 74.5181Z" fill="#AA182C"/>
<path d="M29.9338 25.1952C34.2298 25.0858 37.6234 21.5146 37.513 17.2186C37.4035 12.9226 33.8323 9.52897 29.5363 9.63937C25.2403 9.74881 21.8467 13.321 21.9571 17.616C22.0666 21.912 25.6387 25.3056 29.9338 25.1952Z" fill="#AA182C"/>
<path d="M61.465 42.9312C57.8938 43.0224 55.0723 45.9917 55.1635 49.5629C55.2547 53.1341 58.224 55.9555 61.7952 55.8643C65.3664 55.7731 68.1879 52.8038 68.0967 49.2326C68.0055 45.6614 65.0362 42.84 61.465 42.9312Z" fill="#AA182C"/>
<path d="M4.03872 48.1363L16.2086 55.2278C17.1216 55.7597 18.1603 55.6906 18.863 55.1367L19.6858 86.3626H27.0096L29.6947 71.0986L32.3798 86.3626H39.7037L40.5293 55.0291C40.5494 54.769 40.5619 54.5069 40.5619 54.241C40.5619 54.1786 40.5581 54.1075 40.5552 54.0384L40.5686 53.543L40.5302 53.5402C40.5235 53.4039 40.5245 53.2675 40.5072 53.1341C40.2499 50.6179 40.0147 48.4378 39.937 47.8445C39.9254 47.7773 39.9149 47.7101 39.9149 47.6323L39.5011 42.1757L45.7181 46.3018C46.4198 46.8864 47.0966 47.2071 47.737 47.3136C47.7696 47.3203 47.8032 47.3184 47.8358 47.3242C47.9578 47.3405 48.0806 47.3635 48.1997 47.3635C48.2016 47.3635 48.2045 47.3635 48.2064 47.3635C49.3325 47.3971 50.496 46.7357 51.0883 45.6077L56.5776 33.3216L58.9277 34.465L58.2998 35.7562C57.9994 36.3734 58.2566 37.1165 58.873 37.417L62.2522 39.0624C62.8694 39.3629 63.6125 39.1056 63.913 38.4893L66.8006 32.5565C67.1011 31.9392 66.8438 31.1962 66.2275 30.8957L62.8483 29.2512C62.231 28.9507 61.488 29.208 61.1875 29.8243L60.5597 31.1155L51.3965 26.6554L52.0253 25.3642C52.3258 24.7469 52.0685 24.0038 51.4522 23.7034L48.073 22.0589C47.4557 21.7584 46.7126 22.0157 46.4122 22.632L43.5245 28.5648C43.224 29.1821 43.4813 29.9251 44.0976 30.2256L47.4768 31.8701C48.0941 32.1706 48.8371 31.9133 49.1376 31.297L49.7654 30.0067L52.3709 31.2749L48.0211 39.7507C45.9034 37.5504 38.1341 29.4739 38.015 29.3424C38.015 29.3424 38.015 29.3415 38.0141 29.3405C38.0064 29.3405 38.0026 29.3367 38.0026 29.329C37.6781 28.8931 37.2643 28.5802 36.7949 28.4227C36.5712 28.3555 36.337 28.3114 36.1018 28.3114H23.7005C23.687 28.3114 23.6746 28.3152 23.6611 28.3162H23.1091C18.8486 28.3162 14.3203 30.2112 11.5968 33.4867L3.92064 42.721C3.27264 43.3575 2.88192 43.993 2.70432 44.615C2.688 44.664 2.6832 44.7168 2.66976 44.7667C2.64672 44.8685 2.61504 44.9722 2.60352 45.073C2.44512 46.1923 2.976 47.425 4.03776 48.1373L4.03872 48.1363ZM20.4413 37.44C20.0256 42.0298 19.6291 46.7952 19.5629 47.6333C19.5514 47.712 19.5514 47.7783 19.5408 47.8455C19.4774 48.3283 19.3094 49.8615 19.104 51.7757C18.9091 51.5165 18.6672 51.2861 18.3821 51.0989L10.0138 45.5962C11.2848 43.9478 15.2496 39.2755 20.4413 37.44Z" fill="#AA182C"/>
</svg>
