<svg width="96" height="96" viewBox="0 0 96 96" fill="none" xmlns="http://www.w3.org/2000/svg">
<path d="M74.1168 36.1594C69.9216 33.3533 66.8246 28.9507 65.5997 24.0547C65.2579 22.6886 65.0573 21.289 64.6752 19.9344C64.3075 18.6326 63.7114 17.3002 62.5728 16.5706C60.8506 15.4666 58.5917 16.1078 56.6602 16.7798C56.4067 16.8682 56.1533 16.9565 55.8998 17.0448C56.9174 18.3485 57.6278 19.8989 57.9274 21.5942C57.9456 21.6278 57.9658 21.6576 57.9754 21.7037C58.5629 24.3974 58.7722 25.5811 59.3981 27.1354C60.7354 30.4541 62.6141 32.9923 65.591 34.9766C68.568 36.961 72.2832 37.8106 75.8266 37.3162C75.2678 36.8966 74.6966 36.5472 74.1158 36.1594H74.1168Z" fill="#AA182C"/>
<path d="M48 31.967C52.8701 31.967 56.8186 28.0186 56.8186 23.1485C56.8186 18.2784 52.8701 14.3299 48 14.3299C43.1299 14.3299 39.1815 18.2784 39.1815 23.1485C39.1815 28.0186 43.1299 31.967 48 31.967Z" fill="#AA182C"/>
<path d="M89.0803 68.4931L87.2342 68.497L87.3456 63.3811C87.3619 62.6362 86.7715 62.0189 86.0266 62.0026L83.9184 61.9565C83.1734 61.9402 82.5571 62.5296 82.5398 63.2746L82.4256 68.5066L80.8541 68.5104L81.0077 61.5514C81.024 60.8064 80.4336 60.1891 79.6886 60.1728L77.5805 60.1267C76.8355 60.1104 76.2192 60.6999 76.2019 61.4448L76.0454 68.521L72.745 68.5287C70.8096 60.5155 64.5706 40.2999 64.5696 40.2787C63.6173 36.9283 61.0464 34.4611 57.647 34.4707L54.2707 34.4823C54.2707 34.4823 54.2659 34.4746 54.264 34.4707C54.2611 34.4707 54.2592 34.4707 54.2573 34.4707H41.7398C41.7398 34.4707 41.735 34.4707 41.7331 34.4707C41.7312 34.4746 41.7283 34.4784 41.7264 34.4823L38.3501 34.4707C34.9517 34.4621 32.3798 36.9283 31.4285 40.2787C31.4275 40.2999 25.1885 60.5155 23.2531 68.5287L19.9526 68.521L19.7962 61.4448C19.7789 60.6999 19.1626 60.1095 18.4176 60.1267L16.3094 60.1728C15.5645 60.1891 14.9741 60.8064 14.9904 61.5514L15.144 68.5104L13.5725 68.5066L13.4582 63.2746C13.4419 62.5296 12.8246 61.9392 12.0806 61.9565L9.97248 62.0026C9.22752 62.0189 8.63712 62.6362 8.65344 63.3811L8.7648 68.497L6.91872 68.4931C6.17568 68.5315 5.60352 69.1651 5.64096 69.9082L5.74848 72.0144C5.78688 72.7584 6.42048 73.3306 7.16448 73.2922L8.86944 73.296L8.98272 78.4675C8.99904 79.2125 9.61632 79.8029 10.3603 79.7856L12.4694 79.7395C13.2134 79.7232 13.8048 79.1059 13.7875 78.361L13.6771 73.3066L15.2506 73.3104L15.4061 80.3511C15.4224 81.096 16.0397 81.6864 16.7837 81.6691L18.8918 81.6231C19.6368 81.6067 20.2272 80.9895 20.2109 80.2445L20.0582 73.321L47.9472 73.3843C47.9472 73.3843 47.9472 73.3843 47.9491 73.3843H47.999H48.049C48.049 73.3843 48.049 73.3843 48.0499 73.3843L75.9389 73.321L75.7862 80.2445C75.7699 80.9895 76.3603 81.6067 77.1053 81.6231L79.2134 81.6691C79.9584 81.6854 80.5757 81.096 80.592 80.3511L80.7475 73.3104L82.32 73.3066L82.2096 78.361C82.1923 79.1059 82.7837 79.7223 83.5277 79.7395L85.6358 79.7856C86.3808 79.8019 86.9971 79.2125 87.0144 78.4675L87.1277 73.296L88.8326 73.2922C89.5766 73.3306 90.2102 72.7584 90.2486 72.0144L90.3562 69.9082C90.3946 69.1651 89.8224 68.5306 89.0784 68.4931H89.0803ZM66.0096 68.545L57.2064 68.5651C57.721 67.8518 58.1472 66.9293 58.4573 65.7264C58.9872 63.6701 60.0499 59.3846 61.0176 55.0118C62.8138 59.8339 64.8317 65.0813 66.0106 68.544L66.0096 68.545ZM34.9843 55.0128C35.951 59.3846 37.0147 63.6701 37.5446 65.7274C37.8547 66.9302 38.281 67.8518 38.7955 68.5661L29.9923 68.5459C31.1712 65.0823 33.1882 59.8358 34.9853 55.0138L34.9843 55.0128Z" fill="#AA182C"/>
</svg>
